<svg width="145" height="137" viewBox="0 0 145 137" fill="none" xmlns="http://www.w3.org/2000/svg">
<path d="M122.396 104.24C126.033 106.306 127.312 110.915 124.806 114.231C119.486 121.271 112.746 127.191 104.979 131.605C101.612 133.519 98.0906 135.126 94.4606 136.416C90.8324 137.705 86.9659 135.672 85.6073 132.119L74.2817 102.5C73.6637 100.884 71.3417 100.884 70.7237 102.5L59.3225 132.314C57.9731 135.843 54.1479 137.877 50.5317 136.633C46.6865 135.309 42.9599 133.632 39.404 131.612C31.6369 127.2 24.8957 121.281 19.5737 114.242C17.0667 110.926 18.3455 106.317 21.9818 104.25L68.3836 77.8704C70.7363 76.5328 73.6355 76.5325 75.9885 77.8696L122.396 104.24Z" fill="#04489C"/>
<path d="M15.3711 92.6867C11.7343 94.7532 7.03899 93.5396 5.37413 89.7453C1.83985 81.6904 0.00048416 72.9854 8.98909e-08 64.1592C-0.000203671 60.3316 0.346002 56.5268 1.02616 52.7879C1.70596 49.0509 5.42834 46.772 9.23408 47.3905L40.9587 52.5463C42.6895 52.8276 43.8506 50.8482 42.7377 49.5136L22.2044 24.8896C19.7741 21.9751 19.8967 17.6975 22.7997 15.2374C25.8867 12.6213 29.2264 10.2837 32.7819 8.2627C40.5475 3.84846 49.1263 1.06202 57.9809 0.0451925C62.152 -0.433797 65.5683 2.96079 65.5691 7.09384L65.5802 59.8341C65.5807 62.5082 64.1314 64.9794 61.7784 66.3165L15.3711 92.6867Z" fill="#04489C"/>
<path d="M79.4192 7.48281C79.4192 3.34978 82.8347 -0.0455018 87.0059 0.432629C95.8607 1.44764 104.44 4.23235 112.207 8.64505C115.575 10.5586 118.749 12.7559 121.699 15.2049C124.647 17.6528 124.792 21.965 122.345 24.8996L101.946 49.3626C100.833 50.6972 101.994 52.6765 103.725 52.3952L135.659 47.2057C139.438 46.5915 143.141 48.8348 143.854 52.5393C144.612 56.4783 144.999 60.4935 145 64.5343C145.001 73.3605 143.164 82.0659 139.631 90.1215C137.967 93.9162 133.272 95.1307 129.635 93.065L83.2224 66.7048C80.8691 65.3682 79.4192 62.8972 79.4192 60.2231L79.4192 7.48281Z" fill="#04489C"/>
</svg>
