<?xml version="1.0" encoding="UTF-8"?>
<svg id="Layer_1" data-name="Layer 1" xmlns="http://www.w3.org/2000/svg" viewBox="0 0 102.37 33.75">
  <defs>
    <style>
      .cls-1 {
        fill: #fff;
      }

      .cls-2 {
        fill: #05499c;
      }
    </style>
  </defs>
  <path class="cls-1" d="M50.66,33.75c-2.49,0-4.74-.54-6.69-1.6-1.94-1.06-3.48-2.6-4.58-4.58-1.09-1.97-1.65-4.32-1.65-6.96s.55-4.99,1.63-6.96c1.08-1.97,2.61-3.51,4.56-4.58,1.94-1.06,4.21-1.6,6.73-1.6s4.68.52,6.59,1.56c1.91,1.03,3.43,2.53,4.51,4.44,1.08,1.91,1.63,4.18,1.63,6.73,0,.73-.05,1.5-.14,2.29h-17.73l.03.28c.16,1.45.67,2.58,1.51,3.37.9.84,2.01,1.26,3.32,1.26,1.97,0,3.31-.81,4.08-2.47h8.33c-.43,1.67-1.2,3.19-2.31,4.53-1.11,1.34-2.52,2.4-4.19,3.16-1.67.76-3.57,1.14-5.63,1.14ZM50.57,13.73c-1.31,0-2.42.39-3.32,1.15-.83.71-1.38,1.7-1.62,2.96l-.06.3h9.82v-.26c-.07-1.23-.51-2.2-1.38-2.95-.91-.79-2.07-1.19-3.44-1.19Z"/>
  <path class="cls-1" d="M88.71,10.41h0c-1.8-1.95-4.23-2.94-7.23-2.94-1.68,0-3.22.33-4.57.99-1.12.55-2.06,1.27-2.81,2.14v-2.87h-8.19v25.64h6.58c.89,0,1.62-.72,1.62-1.62v-12.28c0-1.61.42-2.88,1.24-3.76.82-.88,1.94-1.32,3.34-1.32s2.52.44,3.34,1.32c.82.88,1.24,2.14,1.24,3.76v12.28c0,.89.72,1.62,1.62,1.62h6.53v-14.94c0-3.38-.91-6.08-2.7-8.03Z"/>
  <path class="cls-1" d="M102.37,14.25v19.13h-6.66c-.85,0-1.54-.69-1.54-1.54V7.72s6.66,3.87,6.66,3.87c.95.55,1.53,1.57,1.53,2.67Z"/>
  <path class="cls-1" d="M102.37,0v6.71c0,.54-.44.98-.98.98h-7.24V0h8.22Z"/>
  <g>
    <path class="cls-1" d="M12.77,1c-.44-.51-1.07-.8-1.74-.8H1.32l13.61,15.88L0,33.48h9.72c.67,0,1.31-.29,1.74-.8l8.85-10.33,8.85,10.33c.44.51,1.07.8,1.74.8h9.72L12.77,1Z"/>
    <path class="cls-2" d="M32.15,8.54L39.3.19h-9.26c-.96,0-1.87.42-2.49,1.15l-7.15,8.34h9.24c.96.01,1.87-.41,2.5-1.14Z"/>
  </g>
</svg>